<!-- icon666.com - MILLIONS OF FREE VECTOR ICONS --><svg enable-background="new 0 0 512 512" viewBox="0 0 512 512" xmlns="http://www.w3.org/2000/svg" xmlns:xlink="http://www.w3.org/1999/xlink"><linearGradient id="SVGID_1_" gradientUnits="userSpaceOnUse" x1="3.371" x2="476.389" y1="508.661" y2="35.644"><stop offset="0" stop-color="#3873f4"></stop><stop offset="1" stop-color="#e3547a"></stop></linearGradient><g id="_x31_7_Pencil"><path d="m456.148 15.403c-19.165-19.173-50.345-19.158-69.511 0-454.782 454.778-274.417 274.415-353.062 353.059-1.288 1.201-2.172 3.188-2.358 3.988-3.472 14.897 6.73-28.872-30.009 128.742-1.338 5.754 3.843 10.902 9.571 9.563 10.596-2.47 115.051-26.814 128.742-30.005 1.339-.311 3.159-1.4 3.821-2.062l353.289-353.289c19.165-19.165 19.165-50.345 0-69.511zm-318.407 446.352-38.126-38.128c39.685-39.689 275.284-275.291 314.824-314.831l38.13 38.128zm-64.759 18.143-40.909-40.913 11.398-48.899 78.415 78.415zm-53.344 12.432 8.175-35.07 26.893 26.897zm345.473-432.861 38.061 38.06c-39.541 39.54-275.131 275.127-314.828 314.827l-38.063-38.065zm120.253 54.664-21.527 21.523c-30.588-30.587-56.871-56.868-87.458-87.455l21.527-21.531c12.956-12.948 34.028-12.948 46.976 0l40.482 40.486c12.952 12.949 12.952 34.029 0 46.977z" fill="url(#SVGID_1_)" style="fill: rgb(0, 0, 0);"></path></g></svg>