<!-- icon666.com - MILLIONS OF FREE VECTOR ICONS --><svg id="Layer_1" enable-background="new 0 0 512 512" viewBox="0 0 512 512" xmlns="http://www.w3.org/2000/svg"><g><path d="m350.6709 89.0127c-19.3848 0-37.5674 7.5068-51.1992 21.1387l-194.4024 194.4023-18.3818 120.7578 120.7588-18.3818 194.4014-194.4023c13.6318-13.6309 21.1387-31.8135 21.1387-51.1982 0-19.3867-7.5088-37.5645-21.1338-51.1719-13.6182-13.6358-31.795-21.1446-51.1817-21.1446zm-174.6572 263.9441 161.5215-161.5222 25.7319 25.7319-161.521 161.5222zm-16.9707-16.9705-25.7324-25.7324 161.5224-161.5222 25.7319 25.7322zm-34.4107-.4692 51.8501 51.8496-61.1602 9.3101zm260.2447-139.9605-4.6392 4.6392-68.4341-68.4348 4.6387-4.6389c9.0986-9.0986 21.2549-14.1094 34.2285-14.1094 12.9707 0 25.1172 5.0088 34.2109 14.1143 9.0957 9.085 14.1045 21.2314 14.1045 34.2021 0 12.9736-5.0107 25.1289-14.1093 34.2275zm26.5703-195.5566h-310.8955c-55.4444 0-100.5518 45.1074-100.5518 100.5518v310.8965c0 55.4443 45.1074 100.5517 100.5518 100.5517h310.8955c55.4453 0 100.5527-45.1074 100.5527-100.5518v-310.8964c0-55.4444-45.1074-100.5518-100.5527-100.5518zm76.5527 411.4482c0 42.211-34.3418 76.5518-76.5527 76.5518h-310.8955c-42.211 0-76.5518-34.3408-76.5518-76.5518v-310.8964c0-42.211 34.3408-76.5518 76.5518-76.5518h310.8955c42.2109 0 76.5527 34.3408 76.5527 76.5518z" fill="#6e83f9" style="fill: rgb(0, 0, 0);"></path><path d="m411.4473 24h-310.8955c-42.211 0-76.5518 34.3408-76.5518 76.5518v310.8965c0 42.2109 34.3408 76.5517 76.5518 76.5517h310.8955c42.2109 0 76.5527-34.3408 76.5527-76.5518v-310.8964c0-42.211-34.3418-76.5518-76.5527-76.5518zm-9.5996 188.5273-194.4014 194.4024-120.7588 18.3818 18.3818-120.7578 194.4023-194.4023c13.6318-13.6318 31.8145-21.1387 51.1992-21.1387 19.3867 0 37.5635 7.5088 51.1816 21.1445 13.625 13.6074 21.1338 31.7852 21.1338 51.1719.0001 19.3848-7.5067 37.5674-21.1385 51.1982z" fill="#e9e9ff" style="fill: rgb(255, 255, 255);"></path></g></svg>