<!-- icon666.com - MILLIONS OF FREE VECTOR ICONS --><svg id="svg8" viewBox="0 0 27.999849 27.999849" xmlns="http://www.w3.org/2000/svg" xmlns:svg="http://www.w3.org/2000/svg"><g id="layer2" transform="translate(-82 -162)"><g id="g28175" transform="translate(80 160)"><path id="path27452" d="m13 2c-6.0632755 0-11 4.9367245-11 11 0 6.063275 4.9367245 11 11 11 2.672185 0 5.131028-.957566 7.039062-2.546875l8.253907 8.253906a1 1 0 0 0 1.414062 0 1 1 0 0 0 0-1.414062l-8.253906-8.253907c1.589259-1.907912 2.546875-4.367018 2.546875-7.039062 0-6.0632755-4.936725-11-11-11zm0 2c4.982397 0 9 4.0176027 9 9 0 2.462107-.983711 4.681569-2.580078 6.306641-1.634093 1.663474-3.899632 2.693359-6.419922 2.693359-4.9823973 0-9-4.017603-9-9 0-4.9823974 4.0176026-9 9-9z" stroke-linecap="round"></path></g></g></svg>